<svg width="294" height="297" viewBox="0 0 294 297" fill="none" xmlns="http://www.w3.org/2000/svg">
<g clip-path="url(#clip0_183_51)">
<path d="M290.16 296.78L287.46 296.82L287.06 296.64H232.27C231.9 296.26 231.74 295.95 231.46 295.55L230.55 294.22V194.3L230.36 192.6L193.01 192.58L191.49 192.55L188.45 192.63C188.07 192.63 187.56 192.96 187.4 193.22C186.74 193.21 186.26 193.45 185.7 193.81C184.81 194.38 183.92 194.84 183.18 195.63L181.01 197.94L180.48 199.22C179.69 199.95 179.55 200.91 179.46 201.96C179.37 202.95 178.45 203.84 178.45 204.92V256.32L178.42 294.25L177.4 295.47C177.18 295.74 176.85 296.52 176.53 296.59L174.26 296.67C174.17 296.67 173.8 296.77 173.88 296.83H119.88C119.03 296.34 117.74 297.1 116.72 296.05C115.31 294.6 114.78 292.73 115.25 290.66V216.23C115.26 215.23 114.99 214.35 115.3 213.49L115.09 212.2L115.05 204.83C115.05 203.61 114.53 202.54 114.16 201.43C113.53 199.55 112.83 197.85 111.32 196.46C110.28 195.5 109.22 194.08 107.8 193.55C105.8 192.82 103.58 191.94 101.34 191.94L65.2 191.88C63.95 191.88 62.84 192.25 62.31 193.34L62.44 194.48L62.42 291.39C62.42 292.86 62.06 294.23 61.41 295.31C60.7 296.47 59.87 296.47 58.66 296.47H4.19C3.33 296.47 2.73 296.58 2.11 295.95C1.37 295.2 0.720001 294.21 0.720001 293V147.3C0.720001 146.81 0.800001 146.04 1.04 145.77L2.85 143.77L6.17 143.45H119.34C128.1 145.74 135.77 151.25 140.65 158.85C143.03 162.57 144.6 166.5 145.74 170.7C148.61 160.1 154.82 151.71 164.48 146.68C167.49 145.15 170.56 143.99 173.9 143.27H290.42L292.49 145.2V294.91C292.1 295.99 291.11 296.77 290.15 296.79L290.16 296.78Z" fill="white"/>
<path d="M262.44 0L269.87 1.55L273.32 2.96C275.49 3.85 277.38 4.98 279.24 6.4C280.92 7.68 282.59 8.9 283.87 10.59L286.74 14.38L288.86 18.17L290.5 22.32C291.75 25.49 292.3 28.84 292.83 32.22L293.08 35.63L293.24 38.52L293.38 39.23V47.15C293.29 47.14 293.23 47.53 293.22 47.68L293.11 50.48L292.43 56.82L290.71 63.78L288.78 68.67L286.58 72.77C283.19 78.02 278.35 82.03 272.62 84.5C270.89 85.24 269.12 85.95 267.27 86.18L259.34 87.16L215.1 87.14C213.74 87.14 212.32 86.37 211.33 85.66C209.84 84.59 209.24 82.78 209.24 80.98L209.31 55.09C209.31 52.93 211.81 49.69 213.84 49.69L238.82 49.66C239.94 49.66 240.97 49.5 242.08 49.21C242.84 49.02 243.88 47.63 243.87 46.83L243.83 42.63C243.83 41.78 242.93 40.79 242.25 40.35C240.9 39.46 239.5 39.28 237.91 39.28L213.47 39.3C211.87 39.3 210.41 39.77 208.89 40.05C205.78 41.65 203.03 45 202.71 48.42L202.31 52.75V81.7L202.91 86.73C203.37 90.63 207.96 94.83 211.86 94.83H290.98C292.13 95.37 292.89 96.25 293.14 97.44L293.36 98.1V131.41L293.07 132.39C292.77 133.4 292.03 134.3 290.79 134.3H184.14L179.45 133.67L175.38 132.7C167.31 129.83 160.74 123.95 156.94 116.28L154.94 111.25C154.02 108.13 153.3 104.98 152.91 101.75C152.57 98.96 152.61 96.23 152.61 93.42L152.63 82.26L152.58 78.29V59.76L152.7 35.66L153.01 31.72C154.05 26.7 154.84 22.16 157.36 17.51C161.46 9.92 168.03 4.2 176.33 1.64L183.04 0.22L184.11 0H262.4L262.44 0Z" fill="#EF1C00"/>
<path d="M110.52 0L110.89 0.14C113.71 0.71 116.57 0.94 119.3 1.88L122.77 3.42C124.3 4.1 125.7 5 127.11 5.91C128.8 6.99 130.15 8.32 131.55 9.76C137.67 16.03 139.94 22.31 141.45 30.82C141.84 33 142.33 35.06 142.33 37.34V96.63L141.96 100.79L140.51 108.48L139.45 111.88L138.11 115.42C137.29 117.58 136.08 119.37 134.7 121.21C131.9 124.95 128.49 127.88 124.48 130.26C122.39 131.51 120.45 132.51 118.02 133.03C115.59 133.55 113.46 134.24 110.96 134.24L59.24 134.28C58.08 134.28 56.39 133.29 56.39 132.04L56.42 96.85C56.9 95.85 58.07 94.89 59.26 94.89L82.77 94.82C85.44 94.82 89 92.46 90.22 90.43L91.63 87.32C92.06 86.38 92.08 85.28 92.15 84.23L92.37 81.24L92.34 52.38L92.16 50.17C91.66 43.93 87.65 39.33 81.32 39.31L51.51 39.23C50.92 39.23 50.25 39.56 49.97 39.85C49.59 40.24 49.79 40.97 49.79 41.58V130.24C49.77 132.17 48.81 134.27 47.11 134.27H2.38C1.21 134.27 0.46 133.19 0 132.45V2.34C0.51 1.34 1.12 0.43 2.16 0H110.52Z" fill="white"/>
</g>
<defs>
<clipPath id="clip0_183_51">
<rect width="293.4" height="296.82" fill="white"/>
</clipPath>
</defs>
</svg>
